# xmcd
#
# Track frame offsets:
#	150
#	16311
#	62746
#	78286
#	105697
#	130705
#	153124
#	175712
#	203956
#
# Disc length: 3416 seconds
#
# Revision: 1
# Processed by: cddbd v1.5.1PL0 Copyright (c) Steve Scherf et al.
# Submitted via: audiograbber 1.82.01
#
DISCID=660d5609
DTITLE=Jeff Healey Band - 1990-1991 - Hammersmith Odeon, London, UK - BBC
DYEAR=1900
DGENRE=
TTITLE0=Jeff Healey Band - My Little Girl
TTITLE1=Jeff Healey Band - Blue Jean Blues
TTITLE2=Jeff Healey Band - Confidence Man
TTITLE3=Jeff Healey Band - I Think I Love You Too Much
TTITLE4=Jeff Healey Band - How Long Can A Man Be Strong
TTITLE5=Jeff Healey Band - I Cant Get My Hands On You
TTITLE6=Jeff Healey Band - Full Circle
TTITLE7=Jeff Healey Band - Angel Eyes
TTITLE8=Jeff Healey Band - All Along The Watchtower
EXTD=
EXTT0=
EXTT1=
EXTT2=
EXTT3=
EXTT4=
EXTT5=
EXTT6=
EXTT7=
EXTT8=
PLAYORDER=
